<?xml version="1.0" ?><svg style="enable-background:new 0 0 512 512;" version="1.1" viewBox="0 0 512 512" xml:space="preserve" xmlns="http://www.w3.org/2000/svg" xmlns:xlink="http://www.w3.org/1999/xlink"><g id="_x31_4_x2C__Lights_x2C__traffic_x2C__transport_x2C__Development_x2C__road"><g><path d="M349.32,36H162.68c-9.61,0-17.51,7.9-17.51,17.52v35.33v72.43v58.53v72.38v58.53v72.43v35.33    c0,9.62,7.9,17.52,17.51,17.52h186.64c9.65,0,17.51-7.9,17.51-17.52v-35.33v-72.43v-58.53v-72.38v-58.53V88.85V53.52    C366.83,43.9,358.97,36,349.32,36z" style="fill:#95A5A6;"/><path d="M256,347.14c21.91,0,39.81,17.87,39.81,39.78c0,21.95-17.9,39.81-39.81,39.81    s-39.77-17.86-39.77-39.81C216.23,365.01,234.09,347.14,256,347.14z" style="fill:#E74C3C;"/><path d="M256,216.23c21.91,0,39.81,17.86,39.81,39.77s-17.9,39.77-39.81,39.77s-39.77-17.86-39.77-39.77    S234.09,216.23,256,216.23z" style="fill:#F1C40F;"/><path d="M256,85.27c21.91,0,39.81,17.9,39.81,39.81s-17.9,39.78-39.81,39.78s-39.77-17.87-39.77-39.78    S234.09,85.27,256,85.27z" style="fill:#2ECC71;"/><polygon points="145.17,88.85 145.17,161.28 108.93,161.28 62.31,88.85   " style="fill:#7F8C8D;"/><polygon points="145.17,219.81 145.17,292.19 108.93,292.19 62.31,219.81   " style="fill:#7F8C8D;"/><polygon points="145.17,350.72 145.17,423.15 108.93,423.15 62.31,350.72   " style="fill:#7F8C8D;"/><polygon points="449.69,350.72 403.07,423.15 366.83,423.15 366.83,350.72   " style="fill:#7F8C8D;"/><polygon points="449.69,219.81 403.07,292.19 366.83,292.19 366.83,219.81   " style="fill:#7F8C8D;"/><polygon points="449.69,88.85 403.07,161.28 366.83,161.28 366.83,88.85   " style="fill:#7F8C8D;"/><rect height="58.53" width="20" x="135.17" y="161.28"/><rect height="58.529" width="20" x="135.17" y="292.19"/><path d="M349.32,486H162.68c-15.169,0-27.51-12.346-27.51-27.52v-35.33h20v35.33c0,4.076,3.439,7.52,7.51,7.52h186.64    c4.141,0,7.51-3.373,7.51-7.52v-35.33h20v35.33C376.83,473.654,364.489,486,349.32,486z"/><rect height="58.529" width="20" x="356.83" y="292.19"/><rect height="58.53" width="20" x="356.83" y="161.28"/><path d="M376.83,88.85h-20V53.52c0-4.146-3.369-7.52-7.51-7.52H162.68c-4.071,0-7.51,3.444-7.51,7.52v35.33h-20V53.52    c0-15.175,12.341-27.52,27.51-27.52h186.64c15.169,0,27.51,12.345,27.51,27.52V88.85z"/><path d="M145.17,302.19h-36.24c-3.399,0-6.566-1.727-8.407-4.585l-46.62-72.38c-1.981-3.077-2.124-6.99-0.372-10.203    c1.752-3.213,5.12-5.212,8.779-5.212h82.86c5.523,0,10,4.477,10,10v72.38C155.17,297.713,150.693,302.19,145.17,302.19z     M114.384,282.19h20.786v-52.38H80.646L114.384,282.19z"/><path d="M145.17,433.15h-36.24c-3.401,0-6.568-1.729-8.409-4.588l-46.62-72.431c-1.98-3.076-2.122-6.989-0.37-10.201    c1.752-3.213,5.119-5.211,8.778-5.211h82.86c5.523,0,10,4.478,10,10v72.431C155.17,428.673,150.693,433.15,145.17,433.15z     M114.386,413.15h20.784V360.72H80.639L114.386,413.15z"/><path d="M256,174.86c-27.443,0-49.77-22.331-49.77-49.78c0-27.465,22.327-49.81,49.77-49.81c27.465,0,49.81,22.345,49.81,49.81    C305.81,152.529,283.465,174.86,256,174.86z M256,95.27c-16.415,0-29.77,13.373-29.77,29.81c0,16.42,13.355,29.78,29.77,29.78    c16.438,0,29.81-13.359,29.81-29.78C285.81,108.643,272.438,95.27,256,95.27z"/><path d="M256,305.77c-27.443,0-49.77-22.326-49.77-49.77s22.327-49.77,49.77-49.77c27.465,0,49.81,22.327,49.81,49.77    S283.465,305.77,256,305.77z M256,226.23c-16.415,0-29.77,13.355-29.77,29.77s13.355,29.77,29.77,29.77    c16.438,0,29.81-13.354,29.81-29.77S272.438,226.23,256,226.23z"/><path d="M256,436.73c-27.443,0-49.77-22.345-49.77-49.811c0-27.449,22.327-49.78,49.77-49.78c27.465,0,49.81,22.331,49.81,49.78    C305.81,414.386,283.465,436.73,256,436.73z M256,357.14c-16.415,0-29.77,13.359-29.77,29.78c0,16.438,13.355,29.811,29.77,29.811    c16.438,0,29.81-13.373,29.81-29.811C285.81,370.499,272.438,357.14,256,357.14z"/><path d="M145.17,171.28h-36.24c-3.4,0-6.568-1.728-8.409-4.587l-46.62-72.43c-1.98-3.077-2.122-6.989-0.37-10.202    c1.752-3.212,5.119-5.21,8.778-5.21h82.86c5.523,0,10,4.477,10,10v72.43C155.17,166.803,150.693,171.28,145.17,171.28z     M114.386,151.28h20.784V98.85H80.639L114.386,151.28z"/><path d="M403.07,171.28h-36.24c-5.523,0-10-4.477-10-10V88.85c0-5.523,4.477-10,10-10h82.86c3.659,0,7.026,1.999,8.778,5.21    c1.752,3.212,1.611,7.125-0.37,10.202l-46.62,72.43C409.638,169.552,406.47,171.28,403.07,171.28z M376.83,151.28h20.784    l33.747-52.43H376.83V151.28z"/><path d="M403.07,302.19h-36.24c-5.523,0-10-4.478-10-10v-72.38c0-5.523,4.477-10,10-10h82.86c3.66,0,7.027,1.999,8.779,5.212    c1.752,3.213,1.609,7.126-0.372,10.203l-46.62,72.38C409.636,300.464,406.469,302.19,403.07,302.19z M376.83,282.19h20.786    l33.738-52.38H376.83V282.19z"/><path d="M403.07,433.15h-36.24c-5.523,0-10-4.478-10-10V350.72c0-5.522,4.477-10,10-10h82.86c3.659,0,7.026,1.998,8.778,5.211    c1.752,3.212,1.611,7.125-0.37,10.201l-46.62,72.431C409.638,431.422,406.471,433.15,403.07,433.15z M376.83,413.15h20.784    l33.747-52.431H376.83V413.15z"/></g></g><g id="Layer_1"/></svg>