<?xml version="1.0" ?><svg style="enable-background:new 0 0 512 512;" version="1.1" viewBox="0 0 512 512" xml:space="preserve" xmlns="http://www.w3.org/2000/svg" xmlns:xlink="http://www.w3.org/1999/xlink"><g id="_x32_4_x2C__globe_x2C__world_x2C__location_x2C__pin_x2C__worldwide"><g><path d="M253.06,39.23c-40.76,2.04-76.24,46.24-95.1,110.72c-24.66-5.66-49.34-13.46-74.03-23.4    C122.61,74.33,183.99,40.17,253.06,39.23z" style="fill:#2980B9;"/><path d="M143.53,256c0,38.45,5.23,74.61,14.41,105.97c-24.68,5.66-49.38,13.45-74.09,23.39    c-26.74-36.15-42.6-80.94-42.6-129.36H143.53z" style="fill:#2980B9;"/><path d="M256,350.67v122.12c-0.92,0-1.85-0.01-2.77-0.02c-0.06,0-0.12,0-0.17,0    c-40.78-2.04-76.27-46.27-95.12-110.8C190.7,354.46,223.41,350.7,256,350.67z" style="fill:#2980B9;"/><path d="M428.14,385.38c-38.66,52.26-100.07,86.44-169.19,87.39c40.81-2.04,76.33-46.32,95.17-110.92    C378.9,367.53,403.59,375.38,428.14,385.38z" style="fill:#2980B9;"/><path d="M470.75,256H368.49c0-38.38-5.22-74.5-14.37-105.83c24.78-5.67,49.47-13.52,74.02-23.53    C454.89,162.79,470.75,207.58,470.75,256z" style="fill:#2980B9;"/><path d="M256,256h112.49c0,38.4-5.22,74.52-14.37,105.85c-32.55-7.48-65.28-11.22-98.12-11.18V256z" style="fill:#2980B9;"/><path d="M256,161.31V256H143.53c0-38.47,5.24-74.67,14.43-106.05C190.71,157.48,223.41,161.26,256,161.31z" style="fill:#2980B9;"/><path d="M258.95,39.23c40.81,2.04,76.33,46.34,95.17,110.94c-32.55,7.47-65.28,11.19-98.12,11.14V39.21    c0.92,0,1.85,0.01,2.77,0.02C258.83,39.23,258.89,39.23,258.95,39.23z" style="fill:#2980B9;"/><path d="M157.94,361.97c18.85,64.53,54.34,108.76,95.12,110.8c-69.12-0.94-130.54-35.14-169.21-87.41    C108.56,375.42,133.26,367.63,157.94,361.97z" style="fill:#3498DB;"/><path d="M157.96,149.95c-9.19,31.38-14.43,67.58-14.43,106.05H41.25c0-48.46,15.89-93.28,42.68-129.45    C108.62,136.49,133.3,144.29,157.96,149.95z" style="fill:#3498DB;"/><path d="M258.95,39.23c69.12,0.95,130.53,35.15,169.19,87.41c-24.55,10.01-49.24,17.86-74.02,23.53    C335.28,85.57,299.76,41.27,258.95,39.23z" style="fill:#3498DB;"/><path d="M368.49,256h102.26c0,48.43-15.86,93.23-42.61,129.38c-24.55-10-49.24-17.85-74.02-23.53    C363.27,330.52,368.49,294.4,368.49,256z" style="fill:#3498DB;"/><path d="M258.77,472.77c-0.92,0.01-1.85,0.02-2.77,0.02V350.67c32.84-0.04,65.57,3.7,98.12,11.18    c-18.84,64.6-54.36,108.88-95.17,110.92C258.89,472.77,258.83,472.77,258.77,472.77z" style="fill:#3498DB;"/><path d="M256,256v94.67c-32.59,0.03-65.3,3.79-98.06,11.3c-9.18-31.36-14.41-67.52-14.41-105.97H256z" style="fill:#3498DB;"/><path d="M368.49,256H256v-94.69c32.84,0.05,65.57-3.67,98.12-11.14C363.27,181.5,368.49,217.62,368.49,256z    " style="fill:#3498DB;"/><path d="M256,39.21v122.1c-32.59-0.05-65.29-3.83-98.04-11.36c18.86-64.48,54.34-108.68,95.1-110.72    c0.05,0,0.11,0,0.17,0C254.15,39.22,255.08,39.21,256,39.21z" style="fill:#3498DB;"/><path d="M256,482.79c-0.958,0-1.928-0.01-2.887-0.021c-5.522-0.064-9.947-4.594-9.883-10.116c0.064-5.482,4.529-9.883,9.997-9.883    c0.04,0,0.079,0,0.119,0.001c1.763,0.02,3.544,0.02,5.307,0c5.492-0.057,10.051,4.36,10.116,9.882    c0.064,5.522-4.36,10.052-9.883,10.116C257.928,482.781,256.958,482.79,256,482.79z"/><path d="M253.063,482.77c-0.046,0-0.092,0-0.139-0.001c-35.407-0.481-69.238-9.098-100.552-25.609    c-29.866-15.748-56.34-38.519-76.561-65.852C46.659,351.897,31.25,305.109,31.25,256c0-49.148,15.438-95.969,44.644-135.402    c20.227-27.307,46.694-50.055,76.542-65.785c31.297-16.494,65.106-25.101,100.487-25.583c5.528-0.034,10.061,4.34,10.135,9.863    c0.075,5.522-4.341,10.06-9.863,10.135c-63.909,0.87-122.675,31.222-161.23,83.273C65.33,168.465,51.25,211.17,51.25,256    c0,44.795,14.053,87.471,40.64,123.413c38.548,52.105,97.342,82.488,161.306,83.357c5.522,0.075,9.938,4.612,9.863,10.135    C262.985,478.381,258.522,482.77,253.063,482.77z"/><path d="M258.772,49.23c-0.036,0-0.072,0-0.108,0l-0.1-0.001c-1.705-0.019-3.424-0.019-5.129,0l-0.206-9.999l-0.106-10    c2.044-0.021,3.807-0.021,5.653-0.001c5.522,0.059,10.001,4.583,9.943,10.106C268.662,44.822,264.245,49.23,258.772,49.23z"/><path d="M258.947,482.77c-5.459,0-9.921-4.387-9.996-9.862c-0.076-5.522,4.339-10.061,9.862-10.137    c63.971-0.879,122.758-31.254,161.288-83.338C446.694,343.495,460.75,300.814,460.75,256c0-44.8-14.056-87.475-40.648-123.412    c-38.54-52.097-97.327-82.48-161.289-83.359c-5.522-0.076-9.937-4.614-9.861-10.136c0.075-5.476,4.538-9.863,9.996-9.863    c0.047,0,0.094,0,0.14,0.001c35.407,0.487,69.234,9.105,100.545,25.618c29.861,15.748,56.331,38.516,76.547,65.844    c29.158,39.404,44.57,86.193,44.57,135.307c0,49.128-15.413,95.924-44.571,135.328c-20.214,27.325-46.684,50.09-76.548,65.834    c-31.307,16.505-65.135,25.12-100.543,25.606C259.041,482.77,258.994,482.77,258.947,482.77z"/><path d="M256,482.84c-1.086,0-2.083-0.023-3.041-0.071c-0.133-0.001-0.266-0.005-0.399-0.012    c-22.549-1.127-44.311-13.406-62.932-35.51c-17.221-20.44-31.498-48.959-41.287-82.474C138.652,331.676,133.53,294.061,133.53,256    c0-38.082,5.129-75.725,14.833-108.86c9.794-33.486,24.072-61.984,41.288-82.409c18.618-22.088,40.371-34.36,62.909-35.488    c0.134-0.007,0.269-0.011,0.404-0.012c1.928-0.095,4.143-0.095,6.07,0c0.138,0.001,0.277,0.005,0.415,0.012    c22.565,1.128,44.341,13.423,62.975,35.557c17.232,20.469,31.512,49.021,41.296,82.57c9.662,33.084,14.77,70.649,14.77,108.63    c0,37.993-5.108,75.564-14.771,108.653c-9.783,33.544-24.063,62.093-41.296,82.558c-18.632,22.127-40.408,34.419-62.974,35.546    c-0.137,0.007-0.274,0.011-0.411,0.013C258.082,482.817,257.085,482.84,256,482.84z M253.332,462.771    c0.15,0.001,0.3,0.006,0.45,0.015c1.344,0.074,3.094,0.074,4.438,0c0.154-0.009,0.309-0.014,0.463-0.016    c34.852-1.908,67.727-41.618,85.838-103.72c9.14-31.295,13.97-66.928,13.97-103.05c0-36.109-4.831-71.735-13.969-103.027    C326.405,90.856,293.53,51.139,258.681,49.23c-0.151-0.001-0.301-0.006-0.452-0.014c-0.677-0.037-1.427-0.055-2.229-0.055    c-0.814,0-1.543,0.018-2.229,0.055c-0.146,0.008-0.293,0.013-0.44,0.014c-34.793,1.908-67.643,41.544-85.773,103.528    C158.38,184.096,153.53,219.795,153.53,256c0,36.185,4.844,71.857,14.007,103.16C185.659,421.198,218.518,460.863,253.332,462.771    z"/><path d="M470.75,266H41.25c-5.523,0-10-4.478-10-10c0-5.523,4.477-10,10-10h429.5c5.523,0,10,4.477,10,10    C480.75,261.523,476.273,266,470.75,266z"/><path d="M256.639,171.311c-0.218,0-0.436,0-0.654,0c-33.236-0.051-66.97-3.959-100.266-11.614    c-25.03-5.745-50.413-13.765-75.438-23.835l-0.162-0.061c-5.142-2.016-7.675-7.819-5.659-12.96    c2.001-5.103,7.73-7.633,12.844-5.704c0.104,0.039,0.246,0.092,0.324,0.124c24.121,9.711,48.524,17.426,72.569,22.945    c31.842,7.321,64.079,11.058,95.818,11.106c31.938,0.08,64.18-3.615,95.868-10.887c24.144-5.524,48.528-13.277,72.481-23.043    c0.098-0.04,0.253-0.1,0.37-0.144c5.085-1.94,10.806,0.543,12.843,5.614c2.06,5.125-0.424,10.948-5.549,13.008    c-0.063,0.025-0.158,0.062-0.245,0.095c-24.878,10.138-50.273,18.208-75.434,23.964    C323.41,167.478,289.864,171.311,256.639,171.311z"/><path d="M428.296,395.444c-1.193,0-2.404-0.215-3.581-0.667c-0.134-0.05-0.263-0.101-0.383-0.149    c-23.917-9.742-48.303-17.495-72.447-23.03c-31.559-7.251-63.643-10.927-95.373-10.927c-0.167,0-0.333,0-0.5,0    c-31.746,0.029-63.989,3.746-95.838,11.047c-24.102,5.527-48.525,13.239-72.592,22.921c-0.037,0.015-0.074,0.03-0.112,0.044    l-0.119,0.048c-5.141,2.018-10.945-0.518-12.96-5.658c-2.014-5.136,0.51-10.93,5.639-12.953l0,0    c0.014-0.006,0.052-0.021,0.093-0.037c25.034-10.07,50.464-18.098,75.583-23.858c33.307-7.635,67.048-11.521,100.286-11.553    c33.412-0.035,67.174,3.806,100.369,11.434c25.144,5.765,50.523,13.827,75.43,23.965c0.111,0.042,0.218,0.084,0.318,0.125    c5.107,2.104,7.542,7.947,5.439,13.055C435.957,393.11,432.228,395.443,428.296,395.444z"/><path d="M256,482.79c-5.523,0-10-4.478-10-10V39.21c0-5.523,4.477-10,10-10s10,4.477,10,10v433.58    C266,478.313,261.523,482.79,256,482.79z"/></g></g><g id="Layer_1"/></svg>